<?xml version="1.0" encoding="UTF-8" standalone="no"?>
<!-- Created with Inkscape (http://www.inkscape.org/) -->

<svg
   width="52.917mm"
   height="52.917mm"
   viewBox="0 0 52.917 52.917"
   version="1.1"
   id="svg5987"
   inkscape:version="1.2.1 (9c6d41e410, 2022-07-14)"
   sodipodi:docname="ISO_7001_PI_TF_019.svg"
   xmlns:inkscape="http://www.inkscape.org/namespaces/inkscape"
   xmlns:sodipodi="http://sodipodi.sourceforge.net/DTD/sodipodi-0.dtd"
   xmlns="http://www.w3.org/2000/svg"
   xmlns:svg="http://www.w3.org/2000/svg">
  <sodipodi:namedview
     id="namedview5989"
     pagecolor="#ffffff"
     bordercolor="#000000"
     borderopacity="0.25"
     inkscape:showpageshadow="2"
     inkscape:pageopacity="0.0"
     inkscape:pagecheckerboard="0"
     inkscape:deskcolor="#d1d1d1"
     inkscape:document-units="mm"
     showgrid="false"
     inkscape:zoom="0.76880612"
     inkscape:cx="-228.27602"
     inkscape:cy="170.39407"
     inkscape:window-width="1920"
     inkscape:window-height="1017"
     inkscape:window-x="-8"
     inkscape:window-y="-8"
     inkscape:window-maximized="1"
     inkscape:current-layer="layer1" />
  <defs
     id="defs5984" />
  <g
     inkscape:label="Ebene 1"
     inkscape:groupmode="layer"
     id="layer1"
     transform="translate(-165.57626,-103.28542)">
    <rect
       style="fill:#ffffff;fill-opacity:0;stroke:none;stroke-width:2.01819"
       id="rect70551"
       width="52.917"
       height="52.917"
       x="165.57626"
       y="103.28542"
       inkscape:label="2" />
    <path
       id="rect3861-5"
       style="fill:#000000;stroke-width:4.9725"
       d="m 193.30675,112.13982 c 1.47587,1.29476 1.73503,2.94867 2.26911,4.76456 h 10.51202 c 0.16957,-1.00451 0.64721,-1.86182 1.09657,-2.76055 z m -18.42627,3.87831 v 12.53257 l 5.44153,3.07165 v -3.07165 h 2.83239 v -12.53257 z m 2.70681,1.52084 h 4.25866 v 9.76426 h -1.55133 v -8.09149 z m 18.17771,1.16531 -2.03244,1.81797 h 1.5906 c -0.0247,0.204 -0.038,0.40945 -0.0393,0.61495 -2.7e-4,2.96838 2.40599,5.37479 5.37435,5.37487 2.74095,-10e-4 5.37746,-2.39423 5.37383,-5.37435 v -2.43241 z m -0.94568,8.90126 c -1.22946,0.026 -1.90693,0.94606 -2.64635,2.26911 l -2.75487,7.77937 -4.79093,-4.93923 c -0.82035,-0.88945 -1.83016,-0.99383 -2.44584,-0.48214 -0.677,0.56265 -0.89662,1.82239 -0.30903,2.48977 l 7.20473,8.55607 c 1.0347,1.07481 2.4682,0.95081 3.04374,-0.38448 l 2.35852,-6.96753 V 147.348 h 14.70969 v -17.39738 c 0.01,-1.10824 -1.33756,-2.32447 -2.49597,-2.30736 h -3.28972 l -1.81488,5.29425 h -0.49196 l -2.07946,-5.33197 z"
       inkscape:label="1" />
  </g>
</svg>
